<?xml version="1.0" encoding="UTF-8"?>
<svg xmlns="http://www.w3.org/2000/svg" xmlns:xlink="http://www.w3.org/1999/xlink" width="2000" height="2000" viewBox="0 0 2000 2000">

<path fill-rule="evenodd" fill="rgb(18.041992%, 34.910583%, 53.709412%)" fill-opacity="1" d="M 1908.238281 1915.15625 L 1889.179688 1915.15625 C 1888.300781 1915.15625 1887.589844 1915.871094 1887.589844 1916.746094 L 1887.589844 1935.800781 C 1887.589844 1936.679688 1888.300781 1937.394531 1889.179688 1937.394531 L 1908.238281 1937.394531 C 1909.109375 1937.394531 1909.828125 1936.679688 1909.828125 1935.800781 L 1909.828125 1916.746094 C 1909.828125 1915.871094 1909.109375 1915.15625 1908.238281 1915.15625 "/>
<path fill-rule="evenodd" fill="rgb(18.041992%, 34.910583%, 53.709412%)" fill-opacity="1" d="M 1865.28125 1916.171875 L 1847.089844 1916.171875 C 1846.261719 1916.171875 1845.578125 1916.855469 1845.578125 1917.691406 L 1845.578125 1935.875 C 1845.578125 1936.710938 1846.261719 1937.394531 1847.089844 1937.394531 L 1865.28125 1937.394531 C 1866.109375 1937.394531 1866.800781 1936.710938 1866.800781 1935.875 L 1866.800781 1917.691406 C 1866.800781 1916.855469 1866.109375 1916.171875 1865.28125 1916.171875 "/>
<path fill-rule="evenodd" fill="rgb(18.041992%, 34.910583%, 53.709412%)" fill-opacity="1" d="M 1822.320312 1917.1875 L 1805.011719 1917.1875 C 1804.210938 1917.1875 1803.558594 1917.839844 1803.558594 1918.636719 L 1803.558594 1935.949219 C 1803.558594 1936.742188 1804.210938 1937.394531 1805.011719 1937.394531 L 1822.320312 1937.394531 C 1823.121094 1937.394531 1823.769531 1936.742188 1823.769531 1935.949219 L 1823.769531 1918.636719 C 1823.769531 1917.839844 1823.121094 1917.1875 1822.320312 1917.1875 "/>
<path fill-rule="evenodd" fill="rgb(18.041992%, 34.910583%, 53.709412%)" fill-opacity="1" d="M 1779.371094 1918.207031 L 1762.929688 1918.207031 C 1762.171875 1918.207031 1761.550781 1918.824219 1761.550781 1919.582031 L 1761.550781 1936.019531 C 1761.550781 1936.777344 1762.171875 1937.394531 1762.929688 1937.394531 L 1779.371094 1937.394531 C 1780.121094 1937.394531 1780.738281 1936.777344 1780.738281 1936.019531 L 1780.738281 1919.582031 C 1780.738281 1918.824219 1780.121094 1918.207031 1779.371094 1918.207031 "/>
<path fill-rule="evenodd" fill="rgb(18.041992%, 34.910583%, 53.709412%)" fill-opacity="1" d="M 1736.410156 1919.222656 L 1720.839844 1919.222656 C 1720.128906 1919.222656 1719.539062 1919.808594 1719.539062 1920.523438 L 1719.539062 1936.09375 C 1719.539062 1936.808594 1720.128906 1937.394531 1720.839844 1937.394531 L 1736.410156 1937.394531 C 1737.128906 1937.394531 1737.710938 1936.808594 1737.710938 1936.09375 L 1737.710938 1920.523438 C 1737.710938 1919.808594 1737.128906 1919.222656 1736.410156 1919.222656 "/>
<path fill-rule="evenodd" fill="rgb(18.041992%, 34.910583%, 53.709412%)" fill-opacity="1" d="M 1693.460938 1920.238281 L 1678.761719 1920.238281 C 1678.078125 1920.238281 1677.53125 1920.792969 1677.53125 1921.46875 L 1677.53125 1936.167969 C 1677.53125 1936.84375 1678.078125 1937.394531 1678.761719 1937.394531 L 1693.460938 1937.394531 C 1694.128906 1937.394531 1694.679688 1936.84375 1694.679688 1936.167969 L 1694.679688 1921.46875 C 1694.679688 1920.792969 1694.128906 1920.238281 1693.460938 1920.238281 "/>
<path fill-rule="evenodd" fill="rgb(18.041992%, 34.910583%, 53.709412%)" fill-opacity="1" d="M 1650.5 1921.257812 L 1636.671875 1921.257812 C 1636.039062 1921.257812 1635.519531 1921.777344 1635.519531 1922.414062 L 1635.519531 1936.238281 C 1635.519531 1936.875 1636.039062 1937.394531 1636.671875 1937.394531 L 1650.5 1937.394531 C 1651.140625 1937.394531 1651.648438 1936.875 1651.648438 1936.238281 L 1651.648438 1922.414062 C 1651.648438 1921.777344 1651.140625 1921.257812 1650.5 1921.257812 "/>
<path fill-rule="evenodd" fill="rgb(18.041992%, 34.910583%, 53.709412%)" fill-opacity="1" d="M 1607.539062 1922.273438 L 1594.589844 1922.273438 C 1593.988281 1922.273438 1593.511719 1922.761719 1593.511719 1923.355469 L 1593.511719 1936.3125 C 1593.511719 1936.90625 1593.988281 1937.394531 1594.589844 1937.394531 L 1607.539062 1937.394531 C 1608.140625 1937.394531 1608.628906 1936.90625 1608.628906 1936.3125 L 1608.628906 1923.355469 C 1608.628906 1922.761719 1608.140625 1922.273438 1607.539062 1922.273438 "/>
<path fill-rule="evenodd" fill="rgb(18.041992%, 34.910583%, 53.709412%)" fill-opacity="1" d="M 1564.589844 1923.292969 L 1552.5 1923.292969 C 1551.949219 1923.292969 1551.488281 1923.746094 1551.488281 1924.300781 L 1551.488281 1936.386719 C 1551.488281 1936.941406 1551.949219 1937.394531 1552.5 1937.394531 L 1564.589844 1937.394531 C 1565.140625 1937.394531 1565.601562 1936.941406 1565.601562 1936.386719 L 1565.601562 1924.300781 C 1565.601562 1923.746094 1565.140625 1923.292969 1564.589844 1923.292969 "/>
<path fill-rule="evenodd" fill="rgb(23.535156%, 43.920898%, 72.851562%)" fill-opacity="1" d="M 999.960938 69.859375 C 1511.558594 69.859375 1930.140625 488.441406 1930.140625 1000.039062 C 1930.140625 1511.636719 1511.558594 1930.21875 999.960938 1930.21875 C 488.363281 1930.21875 69.78125 1511.636719 69.78125 1000.039062 C 69.78125 488.441406 488.363281 69.859375 999.960938 69.859375 "/>
<path fill-rule="evenodd" fill="rgb(18.041992%, 34.910583%, 53.709412%)" fill-opacity="1" d="M 1924.679688 1100.296875 C 1877.570312 1534.664062 1528.289062 1881.816406 1092.960938 1925.546875 L 657.839844 1549.25 L 711.953125 1302.761719 L 635.90625 1237.460938 L 767.371094 1201.882812 L 777.210938 1136.398438 L 817.144531 804.261719 L 1087.890625 657.191406 L 994.84375 607.160156 L 1005.078125 376.730469 L 1032.738281 383.730469 L 1156.929688 436.339844 L 1924.679688 1100.296875 "/>
<path fill-rule="nonzero" fill="rgb(100%, 100%, 100%)" fill-opacity="1" d="M 931.753906 1549.25 L 1068.171875 1549.25 L 1068.171875 1365.921875 C 1068.171875 1348.8125 1054.121094 1334.761719 1037.011719 1334.761719 L 962.910156 1334.761719 C 945.800781 1334.761719 931.753906 1348.8125 931.753906 1365.921875 L 931.753906 1549.25 "/>
<path fill-rule="nonzero" fill="rgb(100%, 100%, 100%)" fill-opacity="1" d="M 654.59375 1242.257812 L 1345.328125 1242.257812 C 1366.800781 1242.257812 1384.421875 1224.636719 1384.421875 1203.160156 C 1384.421875 1181.6875 1366.800781 1164.0625 1345.328125 1164.0625 C 1115.078125 1164.0625 884.839844 1164.0625 654.59375 1164.0625 C 633.117188 1164.0625 615.496094 1181.6875 615.496094 1203.160156 C 615.496094 1224.636719 633.117188 1242.257812 654.59375 1242.257812 "/>
<path fill-rule="nonzero" fill="rgb(100%, 100%, 100%)" fill-opacity="1" d="M 1261.238281 1269.925781 L 1261.238281 1549.25 L 1342.078125 1549.25 L 1342.078125 1269.925781 L 1261.238281 1269.925781 "/>
<path fill-rule="nonzero" fill="rgb(100%, 100%, 100%)" fill-opacity="1" d="M 766.347656 1269.925781 L 766.347656 1549.25 L 904.085938 1549.25 L 904.085938 1365.921875 C 904.085938 1333.539062 930.527344 1307.097656 962.910156 1307.097656 L 1037.011719 1307.097656 C 1069.390625 1307.097656 1095.828125 1333.539062 1095.828125 1365.921875 L 1095.828125 1549.25 L 1233.570312 1549.25 L 1233.570312 1269.925781 L 766.347656 1269.925781 "/>
<path fill-rule="nonzero" fill="rgb(100%, 100%, 100%)" fill-opacity="1" d="M 657.839844 1269.925781 L 657.839844 1549.25 L 738.679688 1549.25 L 738.679688 1269.925781 L 657.839844 1269.925781 "/>
<path fill-rule="nonzero" fill="rgb(100%, 100%, 100%)" fill-opacity="1" d="M 902.761719 1136.398438 L 902.761719 831.929688 L 815.011719 831.929688 L 777.210938 1136.398438 L 902.761719 1136.398438 "/>
<path fill-rule="nonzero" fill="rgb(100%, 100%, 100%)" fill-opacity="1" d="M 1097.160156 831.929688 L 1097.160156 1136.398438 L 1222.710938 1136.398438 L 1184.910156 831.929688 L 1097.160156 831.929688 "/>
<path fill-rule="nonzero" fill="rgb(100%, 100%, 100%)" fill-opacity="1" d="M 930.429688 907.480469 L 1069.488281 907.480469 L 1069.488281 831.929688 L 930.429688 831.929688 L 930.429688 907.480469 "/>
<path fill-rule="nonzero" fill="rgb(100%, 100%, 100%)" fill-opacity="1" d="M 930.429688 1031.863281 L 1069.488281 1031.863281 L 1069.488281 935.140625 L 930.429688 935.140625 L 930.429688 1031.863281 "/>
<path fill-rule="nonzero" fill="rgb(100%, 100%, 100%)" fill-opacity="1" d="M 1069.488281 1059.527344 L 930.429688 1059.527344 L 930.429688 1136.398438 L 1069.488281 1136.398438 L 1069.488281 1059.527344 "/>
<path fill-rule="nonzero" fill="rgb(100%, 100%, 100%)" fill-opacity="1" d="M 1018.058594 635.648438 C 1017.738281 635.628906 1017.429688 635.601562 1017.121094 635.558594 C 1011.46875 635.039062 1005.75 634.769531 999.960938 634.769531 C 903.691406 634.769531 824.242188 709.140625 817.144531 804.261719 L 1182.769531 804.261719 C 1176.160156 715.550781 1106.371094 644.308594 1018.058594 635.648438 "/>
<path fill-rule="nonzero" fill="rgb(100%, 100%, 100%)" fill-opacity="1" d="M 994.84375 607.160156 L 1005.078125 607.160156 L 1005.078125 376.730469 L 994.84375 376.730469 L 994.84375 607.160156 "/>
<path fill-rule="nonzero" fill="rgb(100%, 100%, 100%)" fill-opacity="1" d="M 1032.738281 383.730469 L 1032.738281 488.960938 L 1156.929688 436.339844 Z M 1032.738281 383.730469 "/>
</svg>
